<svg width="350" height="630" xmlns="http://www.w3.org/2000/svg"><defs><linearGradient id="a" gradientUnits="userSpaceOnUse" x1="47.996" y1="0" x2="217.724" y2="306.048"><stop offset="0" stop-color="#135ec9"/><stop offset="1" stop-color="#40cced"/></linearGradient></defs><path d="M0 0h350v630H0z" fill="url(#a)"/><defs><linearGradient id="b" gradientUnits="userSpaceOnUse" x1="175" y1="570.15" x2="175" y2="0"><stop offset="0" stop-color="#fff" stop-opacity=".7"/><stop offset="1" stop-color="#fff"/></linearGradient></defs><path d="M313.819 563.063c11.076 5.15 31.012 1.885 36.181-1.575V0H1.477L0 563.785s3.242-11.757 16.245-22.254c14.768-11.921 33.966-23.843 61.286-10.332 15.507 10.332 32.196 26.112 44.304 32.305 19.199 9.819 31.07 6.136 38.397 5.15 5.907-.795 12.943-2.493 19.198-5.15 9.353-3.974 33.524-14.147 52.427-23.049 18.902-8.902 36.181-8.727 43.565-2.798 23.629 18.975 31.361 22.134 38.397 25.406z" fill-opacity=".6" fill="url(#b)"/><path d="M224.737 548.992c51.284 32.389 104.877 20.513 125.263 10.526L349.263 0H0v544.943c15.474 8.203 23.579 11.442 30.21 14.575 5.895 2.786 25.79 10.632 45.685 9.013 12.345-1.005 27.263-3.874 38.316-9.013 12.771-5.938 34.778-20.785 56-23.376 21.221-2.591 48.14 8.262 54.526 12.85z" fill="#fff" fill-opacity=".6"/><defs><linearGradient id="c" gradientUnits="userSpaceOnUse" x1="175" y1="568.696" x2="164.024" y2="383.284"><stop offset="0" stop-color="#fff"/><stop offset="1" stop-color="#fff"/></linearGradient></defs><path d="M279.103 533.844c20.041-5.253 65.481.772 70.897 4.453V0H0v559.082c29.485-36.279 73.057-38.646 87.089-38.646 16.256 0 50.219 22.872 50.219 22.872s19.054 14.828 33.233 20.506c17.725 7.099 31.018 6.31 31.018 6.31 8.862 0 23.632-3.841 34.71-11.042 16.986-11.041 25.848-20.785 42.834-25.238z" fill="url(#c)"/><defs><linearGradient id="d" gradientUnits="userSpaceOnUse" x1="175" y1="0" x2="175" y2="502.425"><stop offset="0" stop-color="#fdfcfe"/><stop offset="1" stop-color="#fff" stop-opacity=".17"/></linearGradient></defs><path d="M0 0h350v502.425H0V0z" fill="url(#d)"/></svg>