<svg width="350" height="630" xmlns="http://www.w3.org/2000/svg"><defs><linearGradient id="a" gradientUnits="userSpaceOnUse" x1="47.996" y1="0" x2="217.724" y2="306.048"><stop offset="0" stop-color="#4c3bb3"/><stop offset="1" stop-color="#bc6fd3"/></linearGradient></defs><path d="M0 0h350v630H0z" fill="url(#a)"/><path d="M36.181 66.938C25.105 61.787 5.169 65.052 0 68.512V630h348.523L350 66.215s-3.242 11.757-16.245 22.254c-14.768 11.921-33.966 23.843-61.287 10.332-15.506-10.332-32.195-26.112-44.303-32.305-19.199-9.819-31.07-6.136-38.397-5.15-5.907.795-12.943 2.493-19.198 5.15-9.353 3.974-33.524 14.147-52.427 23.049s-36.181 8.727-43.565 2.798C50.949 73.368 43.217 70.209 36.181 66.938z" fill="#fff" fill-opacity=".6"/><path d="M125.263 93.14C73.979 61.467 20.386 73.081 0 82.847L.737 630H350V97.099c-15.474-8.021-23.579-11.188-30.211-14.252-5.894-2.724-25.789-10.397-45.684-8.813-12.345.982-27.263 3.788-38.316 8.813-12.771 5.806-34.778 20.326-56 22.86-21.221 2.534-48.14-8.08-54.526-12.567z" fill="#fff" fill-opacity=".6"/><defs><linearGradient id="b" gradientUnits="userSpaceOnUse" x1="175" y1="62.875" x2="185.916" y2="247.778"><stop offset="0" stop-color="#fff"/><stop offset="1" stop-color="#fff"/></linearGradient></defs><path d="M70.897 97.63C50.856 102.87 5.416 96.861 0 93.19V630h350V72.462c-29.485 36.18-73.058 38.539-87.089 38.539-16.256 0-50.219-22.809-50.219-22.809s-19.054-14.786-33.233-20.449c-17.725-7.079-31.018-6.292-31.018-6.292-8.862 0-23.632 3.83-34.71 11.011C96.745 83.473 87.883 93.19 70.897 97.63z" fill="url(#b)"/><defs><linearGradient id="c" gradientUnits="userSpaceOnUse" x1="175" y1="186.637" x2="175" y2="630"><stop offset="0" stop-color="#fff" stop-opacity="0"/><stop offset="1" stop-color="#fdfbfe"/></linearGradient></defs><path d="M0 186.637h350V630H0V186.637z" fill="url(#c)"/></svg>