<svg width="119" height="89" xmlns="http://www.w3.org/2000/svg"><path d="M90 47.5C90 67.106 73.434 83 53 83c-20.435 0-37-15.894-37-35.5S32.565 12 53 12c20.434 0 37 15.894 37 35.5z" fill="#fff"/><path d="M98.611 39.784c1.251 6.508-17.959 15.673-42.907 20.471-24.948 4.798-46.186 3.411-47.438-3.097-1.252-6.508 17.958-15.673 42.906-20.471s46.187-3.411 47.439 3.097z" fill="#fff"/><path d="M90 47.044c0 19.606-17 37-38 36 0 0 28-16.394 28-36s-28-35-28-35c20.5-1 38 15.394 38 35z" fill="#f8f8f8"/><path d="M99 12l.449 1.382h1.453l-1.176.854.45 1.382L99 14.764l-1.176.854.449-1.382-1.175-.854h1.453L99 12zM86 76l.449 1.382h1.453l-1.176.854.45 1.382L86 78.764l-1.176.854.449-1.382-1.175-.854h1.453L86 76zM5.5 69l.337 1.036h1.089l-.881.641.336 1.037-.881-.641-.882.641.337-1.037-.882-.641h1.09L5.5 69zM66 2l.673 2.073h2.18L67.09 5.354l.673 2.073L66 6.146l-1.764 1.281.674-2.073-1.763-1.281h2.179L66 2zm46 43l.674 2.073h2.179l-1.763 1.281.673 2.073L112 49.146l-1.763 1.281.673-2.073-1.763-1.281h2.179L112 45zM10 6l.898 2.764h2.906l-2.351 1.708.898 2.764L10 11.528l-2.351 1.708.898-2.764-2.351-1.708h2.906L10 6z" fill="#fff"/><path d="M33.199 30.677c-1.725 2.157-4.172 3.067-5.466 2.032-1.294-1.035-.945-3.622.779-5.779 1.725-2.157 4.172-3.066 5.466-2.032 1.294 1.035.945 3.622-.779 5.779zm11.274 37.557c1.176 2.498.914 5.096-.585 5.802-1.499.705-3.667-.748-4.844-3.246-1.176-2.499-.914-5.096.585-5.802 1.499-.706 3.668.748 4.844 3.246zM31.602 56.451c.888 2.614.336 5.166-1.232 5.699-1.569.533-3.561-1.155-4.449-3.769-.888-2.615-.337-5.167 1.232-5.7 1.569-.532 3.561 1.155 4.449 3.77z" fill="#f8f8f8"/><path d="M20.071 77.804a3 3 0 1 1-5.94-.832 3 3 0 0 1 5.94.832z" fill="#fff"/><path d="M21.061 77.943c-.077.547-1.912.742-4.1.435-2.188-.307-3.899-.999-3.822-1.546.076-.547 1.912-.742 4.1-.435 2.188.307 3.899.999 3.822 1.546z" fill="#fff"/><path d="M20.071 77.804a3 3 0 0 1-3.388 2.554S17.77 79.141 18 77.5c.23-1.641-.484-3.083-.484-3.083a3 3 0 0 1 2.555 3.387z" fill="#f8f8f8"/></svg>